<svg xmlns="http://www.w3.org/2000/svg" xmlns:xlink="http://www.w3.org/1999/xlink" fill="none" version="1.1" width="9.999977111816406" height="6.000000476837158" viewBox="0 0 9.999977111816406 6.000000476837158"><g transform="matrix(0,1,-1,0,9.999977111816406,-9.999977111816406)"><path d="M10.292870111816406,0.292893C10.653354111816407,-0.0675907,11.220587111816407,-0.0953203,11.612877111816406,0.209705C11.612877111816406,0.209705,11.707087111816406,0.292893,11.707087111816406,0.292893C11.707087111816406,0.292893,15.707087111816406,4.29289,15.707087111816406,4.29289C16.067567111816405,4.65338,16.095297111816407,5.22061,15.790277111816406,5.6129C15.790277111816406,5.6129,15.707087111816406,5.70711,15.707087111816406,5.70711C15.707087111816406,5.70711,11.707087111816406,9.70711,11.707087111816406,9.70711C11.316557111816406,10.0976,10.683395111816406,10.0976,10.292870111816406,9.70711C9.932386411816406,9.34662,9.904656811816407,8.77939,10.209682111816406,8.3871C10.209682111816406,8.3871,10.292870111816406,8.29289,10.292870111816406,8.29289C10.292870111816406,8.29289,13.584977111816407,5,13.584977111816407,5C13.584977111816407,5,10.292870111816406,1.70711,10.292870111816406,1.70711C9.932386411816406,1.34662,9.904656811816407,0.779392,10.209682111816406,0.387101C10.209682111816406,0.387101,10.292870111816406,0.292893,10.292870111816406,0.292893C10.292870111816406,0.292893,10.292870111816406,0.292893,10.292870111816406,0.292893Z" fill="#FFFFFF" fill-opacity="0.550000011920929"/></g></svg>