<svg xmlns="http://www.w3.org/2000/svg" xmlns:xlink="http://www.w3.org/1999/xlink" fill="none" version="1.1" width="40" height="40" viewBox="0 0 40 40"><defs><clipPath id="master_svg0_50_028144"><rect x="0" y="0" width="40" height="40" rx="0"/></clipPath></defs><g clip-path="url(#master_svg0_50_028144)"><g><path d="M25.729720703125,2.49755859375L10.521920703125,2.49755859375C7.472700703125,2.49755859375,5.001220703125,4.96942859375,5.001220703125,8.01825859375L5.001220703125,31.96165859375C5.001220703125,35.01085859375,7.4731007031250005,37.48235859375,10.521920703125,37.48235859375L29.486420703125,37.48235859375C32.535620703125005,37.48235859375,35.007120703125,35.01045859375,35.007120703125,31.96165859375L35.007120703125,11.77450859375C35.007120703125,10.53114859375,34.513320703125004,9.33896859375,33.634020703125,8.46005859375L29.044220703125,3.8702185937499998C28.165120703125,2.99130759375,26.972920703125,2.49755859375,25.729720703125,2.49755859375Z" fill="#53D39C" fill-opacity="1"/></g><g><path d="M25.605411328125,15.18814921875C25.239411328125,14.82214921875,24.645611328125,14.82214921875,24.279611328125,15.18814921875L19.953461328125,19.51434921875L15.627291328125,15.18814921875C15.261281328125,14.82214921875,14.667528328125,14.82214921875,14.301512328125,15.18814921875C13.935497328125,15.55424921875,13.935497328125,16.14794921875,14.301512328125,16.51394921875L18.627681328125,20.84014921875L14.301123328125,25.16634921875C13.935107428125,25.53234921875,13.935107428125,26.12604921875,14.301123328125,26.49204921875C14.484326328125,26.67524921875,14.724169328125,26.76674921875,14.964013328125,26.76674921875C15.203861328125,26.76674921875,15.443701328125,26.67524921875,15.626901328125,26.49204921875L19.953461328125,22.16594921875L24.279211328125,26.49204921875C24.462411328125,26.67524921875,24.702311328125,26.76674921875,24.942111328125,26.76674921875C25.182011328125,26.76674921875,25.421811328125003,26.67524921875,25.605011328125002,26.49204921875C25.971011328125,26.12604921875,25.971011328125,25.53234921875,25.605011328125002,25.16634921875L21.279251328125,20.84014921875L25.605411328125,16.51394921875C25.971411328125,16.14794921875,25.971411328125,15.55424921875,25.605411328125,15.18814921875ZM33.634311328125,8.46044921875L29.044511328124997,3.8706092187500003C28.385911328124998,3.21212621875,27.546211328125,2.76471921875,26.632411328125002,2.58544921875L26.632411328125002,7.73700921875C26.632411328125002,9.37255921875,27.958111328125,10.69833921875,29.593711328125,10.69833921875L34.881611328125004,10.69833921875C34.681611328125,9.85106921875,34.249711328125,9.076189218749999,33.634311328125,8.46044921875Z" fill="#25BF79" fill-opacity="1"/></g><g><path d="M21.279251328125,20.37128421875L25.605411328125,16.04511421875C25.971411328125,15.67910421875,25.971411328125,15.08535121875,25.605411328125,14.71933621875C25.239411328125,14.35332031875,24.645611328125,14.35332031875,24.279611328125,14.71933621875L19.953461328125,19.04550421875L15.627291328125,14.71933621875C15.261281328125,14.35332031875,14.667528328125,14.35332031875,14.301512328125,14.71933621875C13.935497328125,15.08535121875,13.935497328125,15.67910421875,14.301512328125,16.04511421875L18.627681328125,20.37128421875L14.301123328125,24.69742421875C13.935107428125,25.06352421875,13.935107428125,25.657224218750002,14.301123328125,26.023224218750002C14.484326328125,26.20642421875,14.724169328125,26.29782421875,14.964013328125,26.29782421875C15.203861328125,26.29782421875,15.443701328125,26.20642421875,15.626901328125,26.023224218750002L19.953461328125,21.69707421875L24.279211328125,26.023224218750002C24.462411328125,26.20642421875,24.702311328125,26.29782421875,24.942111328125,26.29782421875C25.182011328125,26.29782421875,25.421811328125003,26.20642421875,25.605011328125002,26.023224218750002C25.971011328125,25.657224218750002,25.971011328125,25.06352421875,25.605011328125002,24.69742421875L21.279251328125,20.37128421875Z" fill="#FFFFFF" fill-opacity="1"/></g></g></svg>