<svg xmlns="http://www.w3.org/2000/svg" xmlns:xlink="http://www.w3.org/1999/xlink" fill="none" version="1.1" width="20" height="16" viewBox="0 0 20 16"><defs><clipPath id="master_svg0_60_33954"><rect x="0" y="0" width="20" height="16" rx="0"/></clipPath><filter id="master_svg1_60_33955" filterUnits="objectBoundingBox" color-interpolation-filters="sRGB" x="-24" y="-20" width="68" height="64"><feFlood flood-opacity="0" result="BackgroundImageFix"/><feColorMatrix in="SourceAlpha" type="matrix" values="0 0 0 0 0 0 0 0 0 0 0 0 0 0 0 0 0 0 127 0"/><feOffset dy="4" dx="0"/><feGaussianBlur stdDeviation="6"/><feColorMatrix type="matrix" values="0 0 0 0 0.8655710220336914 0 0 0 0 0.8905394673347473 0 0 0 0 0.9404761791229248 0 0 0 0.5600000023841858 0"/><feBlend mode="normal" in2="BackgroundImageFix" result="effect1_dropShadow"/><feBlend mode="normal" in="SourceGraphic" in2="effect1_dropShadow" result="shape"/></filter></defs><g clip-path="url(#master_svg0_60_33954)"><g filter="url(#master_svg1_60_33955)"><path d="M16.677,0L3.323,0C1.49067,0,0,1.41438,0,3.15293L0,12.8471C0,14.5856,1.49067,16,3.323,16L16.677,16C18.5093,16,20,14.5856,20,12.8471L20,3.15404C20,1.41438,18.5093,-2.20574e-7,16.677,0Z" fill="#159DFF" fill-opacity="1"/></g><g><path d="M18.102182585144043,5.9716796875C12.166382585144042,5.9716796875,7.326976585144043,10.4235296875,7.088282585144043,15.9999796875L16.677002585144045,15.9999796875C18.509282585144042,15.9999796875,19.999982585144043,14.5856096875,19.999982585144043,12.8470596875L19.999982585144043,6.1271056875C19.373182585144043,6.0240121875,18.73828258514404,5.9720140775,18.102182585144043,5.9716796875Z" fill="#FFFFFF" fill-opacity="0.1599999964237213"/></g><g><path d="M2.82806,7.655840476837159C7.89329,7.655840476837159,12.1594,4.415210476837158,13.4511,4.76837158203125e-7L3.323,4.76837158203125e-7C1.49067,4.76837158203125e-7,0,1.4143804768371582,0,3.152930476837158L0,7.307240476837158C0.922731,7.539480476837158,1.87342,7.656660476837158,2.82806,7.655840476837159Z" fill="#FFFFFF" fill-opacity="0.1599999964237213"/></g><g><path d="M8.72071515625,8.157646420822143C9.21576515625,7.659496420822143,9.49122515625,7.000526420822144,9.490625156250001,6.315846420822144C9.490625156250001,4.831526420822144,8.21758515625,3.6225364208221436,6.65203515625,3.6225364208221436C5.08647515625,3.6225364208221436,3.81578315625,4.830416420822144,3.81578315625,6.315846420822144C3.81578315625,7.027476420822143,4.10947515625,7.675826420822143,4.58568515625,8.157646420822143C3.53730615625,8.802666420822144,2.84228515625,9.921726420822143,2.84228515625,11.194006420822143C2.84228515625,11.589226420822143,3.18043515625,11.910076420822143,3.59698015625,11.910076420822143C4.01352515625,11.910076420822143,4.35167515625,11.589226420822143,4.35167515625,11.194006420822143C4.35167515625,9.989456420822144,5.38484515625,9.009156420822144,6.6543751562499995,9.009156420822144C7.92389515625,9.009156420822144,8.95706515625,9.989456420822144,8.95706515625,11.194006420822143C8.95706515625,11.589226420822143,9.29521515625,11.910076420822143,9.71176515625,11.910076420822143C10.12830515625,11.910076420822143,10.46645515625,11.589226420822143,10.46645515625,11.194006420822143C10.465285156250001,9.921726420822143,9.76909515625,8.802666420822144,8.72071515625,8.157646420822143ZM5.32400515625,6.315846420822144C5.32400515625,5.620866420822144,5.91956515625,5.054676420822144,6.653205156249999,5.054676420822144C7.38683515625,5.054676420822144,7.98240515625,5.620866420822144,7.98240515625,6.315846420822144C7.98240515625,7.010826420822143,7.38683515625,7.577016420822144,6.653205156249999,7.577016420822144C5.91956515625,7.577016420822144,5.32400515625,7.010826420822143,5.32400515625,6.315846420822144ZM16.71348515625,9.216766420822143L12.77617515625,9.216766420822143C12.35963515625,9.216766420822143,12.02148515625,9.537606420822144,12.02148515625,9.932836420822143C12.02148515625,10.328056420822143,12.35963515625,10.648906420822144,12.77617515625,10.648906420822144L16.71348515625,10.648906420822144C17.12998515625,10.648906420822144,17.46818515625,10.328056420822143,17.46818515625,9.932836420822143C17.46818515625,9.537606420822144,17.12998515625,9.216766420822143,16.71348515625,9.216766420822143ZM12.77500515625,6.764366420822144L15.14678515625,6.764366420822144C15.56328515625,6.764366420822144,15.90138515625,6.443516420822144,15.90138515625,6.048296420822144C15.90138515625,5.653066420822144,15.56328515625,5.332226420822144,15.14678515625,5.332226420822144L12.77500515625,5.332226420822144C12.35846515625,5.332226420822144,12.02031515625,5.653066420822144,12.02031515625,6.048296420822144C12.02031515625,6.443516420822144,12.35846515625,6.764366420822144,12.77500515625,6.764366420822144Z" fill="#FFFFFF" fill-opacity="1"/></g></g></svg>