<svg xmlns="http://www.w3.org/2000/svg" xmlns:xlink="http://www.w3.org/1999/xlink" fill="none" version="1.1" width="100" height="100" viewBox="0 0 100 100"><defs><clipPath id="master_svg0_50_029494"><rect x="0" y="0" width="100" height="100" rx="0"/></clipPath><linearGradient x1="0.49706265330314636" y1="0.06391092389822006" x2="0.8896802663803101" y2="1.1080204248428345" id="master_svg1_50_029512"><stop offset="0%" stop-color="#FFFFFF" stop-opacity="1"/><stop offset="100%" stop-color="#FFFFFF" stop-opacity="0"/></linearGradient><filter id="master_svg2_50_029520" filterUnits="objectBoundingBox" color-interpolation-filters="sRGB" x="-13.370833396911621" y="-13.370833396911621" width="87.31205558776855" height="83.86802864074707"><feFlood flood-opacity="0" result="BackgroundImageFix"/><feBlend mode="normal" in="SourceGraphic" in2="BackgroundImageFix" result="shape"/><feGaussianBlur stdDeviation="3.3427083492279053" result="effect1_foregroundBlur"/></filter><linearGradient x1="0.34210652112960815" y1="-0.0028589335270226" x2="0.27823784947395325" y2="0.9598254561424255" id="master_svg3_50_029506"><stop offset="0%" stop-color="#FFFFFF" stop-opacity="1"/><stop offset="100%" stop-color="#FFFFFF" stop-opacity="0"/></linearGradient></defs><g clip-path="url(#master_svg0_50_029494)"><g><path d="M31.2851534375,28.39208984375C29.4531234375,28.39208984375,27.9677734375,29.88118984375,27.9677734375,31.71903984375L27.9677734375,37.26493984375L28.0136690375,37.26493984375C27.9833958375,37.44617984375,27.9677734375,37.63132984375,27.9677734375,37.82040984375L27.9677734375,82.18958984375C27.9677734375,84.02738984375,29.4531234375,85.51748984375,31.2851534375,85.51748984375L75.60447343749999,85.51748984375C77.1650734375,85.51748984375,78.5146734375,84.42608984374999,78.8466734375,82.89688984375L88.4609734375,38.52678984375C88.9111734375,36.45278984375,87.3359734375,34.49247984375,85.21977343750001,34.49247984375L60.5868734375,34.49247984375C59.0605734375,34.49247984375,57.8222734375,33.25123984375,57.8222734375,31.71903984375C57.8222734375,29.88118984375,56.3368734375,28.39208984375,54.504873437499995,28.39208984375L31.2851534375,28.39208984375Z" fill-rule="evenodd" fill="#4E9BEC" fill-opacity="1"/></g><g><path d="M75.513675,37.67822265625L22.439455,37.67822265625C20.497075,37.67822265625,18.921875,39.25842265625,18.921875,41.20698265625L18.921875,82.19042265625C18.921875,84.13892265625,20.497075,85.71812265625,22.439455,85.71812265625L75.513675,85.71812265625C77.456075,85.71812265625,79.031275,84.13892265625,79.031275,82.19042265625L79.031275,41.20698265625C79.031275,39.25842265625,77.456075,37.67822265625,75.513675,37.67822265625Z" fill="#DBEDFF" fill-opacity="1"/><path d="M80.400375,82.19042265625L80.400375,41.20698265625Q80.400475,39.17971265625,78.970575,37.74528025625Q77.53887499999999,36.30905265625,75.513675,36.30905265625L22.439455,36.30905265625Q20.414265,36.30905265625,18.9825837,37.74528005625Q17.552705,39.17971265625,17.552705,41.20698265625L17.552705,82.19042265625Q17.552705,84.21772265625,18.9827694,85.65182265625Q20.414325,87.08732265625,22.439455,87.08732265625L75.513675,87.08732265625Q77.538775,87.08732265625,78.97037499999999,85.65182265625Q80.400475,84.21772265625,80.400375,82.19042265625ZM77.03117499999999,39.67851265625Q77.662075,40.31142265625,77.662075,41.20698265625L77.662075,82.19042265625Q77.662075,83.08572265625,77.031375,83.71822265624999Q76.402275,84.34902265625,75.513675,84.34902265625L22.439455,84.34902265625Q21.550825,84.34902265625,20.921775,83.71822265624999Q20.291045,83.08572265625,20.291045,82.19042265625L20.291045,41.20698265625Q20.291045,40.31142265625,20.921955,39.67851265625Q21.551065,39.04739265625,22.439455,39.04739265625L75.513675,39.04739265625Q76.402075,39.04739265625,77.03117499999999,39.67851265625Z" fill-rule="evenodd" fill="url(#master_svg1_50_029512)" fill-opacity="1"/></g><g><g><g filter="url(#master_svg2_50_029520)"><path d="M31.2851534375,28.39306640625C29.4531234375,28.39306640625,27.9677734375,29.88313640625,27.9677734375,31.72099640625L27.9677734375,37.26689640625L28.0136690375,37.26689640625C27.9833958375,37.44812640625,27.9677734375,37.63328640625,27.9677734375,37.82236640625L27.9677734375,82.19146640625C27.9677734375,84.02936640625,29.4531234375,85.51946640624999,31.2851534375,85.51946640624999L75.60447343749999,85.51946640624999C77.1650734375,85.51946640624999,78.5146734375,84.42806640625,78.8466734375,82.89786640625L88.4609734375,38.52866640625C88.9111734375,36.45474640625,87.3359734375,34.49443640625,85.21977343750001,34.49443640625L60.5868734375,34.49443640625C59.0605734375,34.49443640625,57.8222734375,33.25319640625,57.8222734375,31.72099640625C57.8222734375,29.88313640625,56.3368734375,28.39306640625,54.504873437499995,28.39306640625L31.2851534375,28.39306640625Z" fill-rule="evenodd" fill="#7BBBFF" fill-opacity="1"/></g></g></g><g><path d="M12.95138125,44.67626953125L66.34003125000001,44.67626953125C67.74823125,44.67626953125,68.98163124999999,45.62360653125,69.34983125,46.98729953125L78.61353125,81.37366953125C79.14963125,83.36136953125,77.65643125,85.31676953125,75.60473125,85.31676953125L22.21503125,85.31676953125C20.806831250000002,85.31676953125,19.573451249999998,84.36946953124999,19.205291250000002,83.00576953125L9.94161925,48.61942953125C9.40646325,46.63167953125,10.89865125,44.67626953125,12.95138125,44.67626953125Z" fill="#EAF4FF" fill-opacity="1"/><path d="M8.557231250000001,46.88468953125Q8.33849125,47.93154953125,8.61952125,48.97537953125L8.61958125,48.97558953125L17.88344125,83.36256953125Q18.28027125,84.83246953125,19.48626125,85.75856953125Q20.69393125,86.68596953125001,22.21503125,86.68596953125001L75.60473125,86.68596953125001Q76.68533125,86.68596953125001,77.63813125,86.19976953125Q78.54563125,85.73666953125,79.16793125,84.92126953125Q79.78993125,84.10636953125001,79.99833125,83.10816953125Q80.21703125,82.06106953125,79.93553125,81.01746953125L70.67163124999999,46.63042953125Q70.27483125,45.16055553125,69.06883125,44.23446653125Q67.86123125,43.30709953125,66.34003125000001,43.30709953125L12.95138125,43.30709953125Q11.87051125,43.30709953125,10.91762125,43.79324453125Q10.01004825,44.25627753125,9.38765325,45.07175553125Q8.76579125,45.88652953125,8.557231250000001,46.88468953125ZM11.26371125,48.26348953125L11.26366125,48.26326953125Q11.03762125,47.42336953125,11.56443125,46.73312953125Q12.08930125,46.04543953125,12.95138125,46.04543953125L66.34003125000001,46.04543953125Q66.93113124999999,46.04543953125,67.40103125,46.40632953125Q67.87253125000001,46.76837953125,68.02803125,47.34417953125L77.29143125,81.72976953125Q77.51803125,82.56966953125,76.99113125,83.25986953124999Q76.46633125,83.94756953125,75.60473125,83.94756953125L22.21503125,83.94756953125Q21.62403125,83.94756953125,21.15403125,83.58666953125001Q20.68263125,83.22466953125,20.52713125,82.64886953125L11.26371125,48.26348953125Z" fill-rule="evenodd" fill="url(#master_svg3_50_029506)" fill-opacity="1"/></g><g><path d="M34.049801875,31.7186475Q34.049801875,31.8003975,34.041821875,31.8817475Q34.033831875,31.9630975,34.017931875,32.0432775Q34.002031875,32.1234475,33.978381875,32.2016775Q33.954731875,32.2798975,33.923541875,32.3554275Q33.892361875,32.4309475,33.853951875,32.5030375Q33.815531875,32.5751375,33.770261875,32.6430975Q33.724991875,32.7110675,33.673301875,32.7742575Q33.621601875,32.8374475,33.563981875,32.8952575Q33.506361875,32.9530575,33.443371875,33.0049175Q33.380381875,33.0567775,33.312631875,33.1021875Q33.244881875,33.1476075,33.173011875,33.1861375Q33.101151875,33.2246775,33.025861875,33.2559575Q32.950581875,33.2872375,32.872601875,33.3109675Q32.794631875,33.3346975,32.714711875,33.3506475Q32.634791875,33.3665975,32.553691875,33.3746075Q32.472601875,33.3826175,32.391111875,33.3826175Q32.309631875,33.3826175,32.228531875,33.3746075Q32.147441875,33.3665975,32.067521875,33.3506475Q31.987601875,33.3346975,31.909621875,33.3109675Q31.831641875,33.2872375,31.756361875,33.2559575Q31.681075875,33.2246775,31.609211875,33.1861375Q31.537346875,33.1476075,31.469593875,33.1021875Q31.401839875,33.0567775,31.338850875,33.0049175Q31.275860875,32.9530575,31.218240875,32.8952575Q31.160621875,32.8374475,31.108927875,32.7742575Q31.057232875,32.7110675,31.011961875,32.6430975Q30.966690875,32.5751375,30.928277875,32.5030375Q30.889865875,32.4309475,30.858681875,32.3554275Q30.827498775,32.2798975,30.803844575,32.2016775Q30.780190375,32.1234475,30.764293175,32.0432775Q30.748395975,31.9630975,30.740408925,31.8817475Q30.732421875,31.8003975,30.732421875,31.7186475Q30.732421875,31.6369075,30.740408925,31.5555575Q30.748395975,31.4742075,30.764293175,31.3940275Q30.780190375,31.3138575,30.803844575,31.2356275Q30.827498775,31.1574075,30.858681875,31.0818775Q30.889865875,31.0063575,30.928277875,30.9342645Q30.966690875,30.8621715,31.011961875,30.7942025Q31.057232875,30.7262345,31.108927875,30.6630445Q31.160621875,30.5998545,31.218240875,30.5420515Q31.275860875,30.4842485,31.338850875,30.4323905Q31.401840875,30.3805315,31.469593875,30.3351165Q31.537346875,30.2897005,31.609211875,30.2511665Q31.681075875,30.2126315,31.756361875,30.1813495Q31.831641875,30.1500667,31.909621875,30.1263373Q31.987601875,30.1026078,32.067521875,30.0866601Q32.147441875,30.0707124,32.228531875,30.06269995Q32.309631875,30.0546875,32.391111875,30.0546875Q32.472601875,30.0546875,32.553691875,30.06269995Q32.634791875,30.0707124,32.714711875,30.0866601Q32.794631875,30.1026078,32.872601875,30.1263373Q32.950581875,30.1500667,33.025861875,30.1813495Q33.101151875,30.2126315,33.173011875,30.2511665Q33.244881875,30.2897005,33.312631875,30.3351165Q33.380381875,30.3805315,33.443371875,30.4323905Q33.506361875,30.4842485,33.563981875,30.5420515Q33.621601875,30.5998545,33.673301875,30.6630445Q33.724991875,30.7262345,33.770261875,30.7942025Q33.815531875,30.8621715,33.853951875,30.9342645Q33.892361875,31.0063575,33.923541875,31.0818775Q33.954731875,31.1574075,33.978381875,31.2356275Q34.002031875,31.3138575,34.017931875,31.3940275Q34.033831875,31.4742075,34.041821875,31.5555575Q34.049801875,31.6369075,34.049801875,31.7186475Z" fill="#FFFFFF" fill-opacity="1"/></g><g><path d="M39.5781221875,31.7186475Q39.5781221875,31.8003975,39.5701421875,31.8817475Q39.5621521875,31.9630975,39.5462521875,32.0432775Q39.5303521875,32.1234475,39.5067021875,32.2016775Q39.4830521875,32.2798975,39.4518621875,32.3554275Q39.4206821875,32.4309475,39.3822721875,32.5030375Q39.3438521875,32.5751375,39.2985821875,32.6430975Q39.2533121875,32.7110675,39.2016221875,32.7742575Q39.1499221875,32.8374475,39.0923021875,32.8952575Q39.0346821875,32.9530575,38.9716921875,33.0049175Q38.9087021875,33.0567775,38.8409521875,33.1021875Q38.7732021875,33.1476075,38.7013321875,33.1861375Q38.6294721875,33.2246775,38.5541821875,33.2559575Q38.4789021875,33.2872375,38.4009221875,33.3109675Q38.3229521875,33.3346975,38.2430321875,33.3506475Q38.1631121875,33.3665975,38.0820121875,33.3746075Q38.0009221875,33.3826175,37.9194321875,33.3826175Q37.8379521875,33.3826175,37.7568521875,33.3746075Q37.6757621875,33.3665975,37.5958421875,33.3506475Q37.5159221875,33.3346975,37.4379421875,33.3109675Q37.3599621875,33.2872375,37.2846821875,33.2559575Q37.2093961875,33.2246775,37.1375321875,33.1861375Q37.0656671875,33.1476075,36.9979141875,33.1021875Q36.9301601875,33.0567775,36.8671711875,33.0049175Q36.8041811875,32.9530575,36.7465611875,32.8952575Q36.6889421875,32.8374475,36.6372481875,32.7742575Q36.5855531875,32.7110675,36.5402821875,32.6430975Q36.4950111875,32.5751375,36.4565981875,32.5030375Q36.4181861875,32.4309475,36.3870021875,32.3554275Q36.3558190875,32.2798975,36.3321648875,32.2016775Q36.3085106875,32.1234475,36.2926134875,32.0432775Q36.2767162875,31.9630975,36.2687292375,31.8817475Q36.2607421875,31.8003975,36.2607421875,31.7186475Q36.2607421875,31.6369075,36.2687292375,31.5555575Q36.2767162875,31.4742075,36.2926134875,31.3940275Q36.3085106875,31.3138575,36.3321648875,31.2356275Q36.3558190875,31.1574075,36.3870021875,31.0818775Q36.4181861875,31.0063575,36.4565981875,30.9342645Q36.4950111875,30.8621715,36.5402821875,30.7942025Q36.5855531875,30.7262345,36.6372481875,30.6630445Q36.6889421875,30.5998545,36.7465611875,30.5420515Q36.8041811875,30.4842485,36.8671711875,30.4323905Q36.9301611875,30.3805315,36.9979141875,30.3351165Q37.0656671875,30.2897005,37.1375321875,30.2511665Q37.2093961875,30.2126315,37.2846821875,30.1813495Q37.3599621875,30.1500667,37.4379421875,30.1263373Q37.5159221875,30.1026078,37.5958421875,30.0866601Q37.6757621875,30.0707124,37.7568521875,30.06269995Q37.8379521875,30.0546875,37.9194321875,30.0546875Q38.0009221875,30.0546875,38.0820121875,30.06269995Q38.1631121875,30.0707124,38.2430321875,30.0866601Q38.3229521875,30.1026078,38.4009221875,30.1263373Q38.4789021875,30.1500667,38.5541821875,30.1813495Q38.6294721875,30.2126315,38.7013321875,30.2511665Q38.7732021875,30.2897005,38.8409521875,30.3351165Q38.9087021875,30.3805315,38.9716921875,30.4323905Q39.0346821875,30.4842485,39.0923021875,30.5420515Q39.1499221875,30.5998545,39.2016221875,30.6630445Q39.2533121875,30.7262345,39.2985821875,30.7942025Q39.3438521875,30.8621715,39.3822721875,30.9342645Q39.4206821875,31.0063575,39.4518621875,31.0818775Q39.4830521875,31.1574075,39.5067021875,31.2356275Q39.5303521875,31.3138575,39.5462521875,31.3940275Q39.5621521875,31.4742075,39.5701421875,31.5555575Q39.5781221875,31.6369075,39.5781221875,31.7186475Z" fill="#FFFFFF" fill-opacity="1"/></g><g><path d="M45.1064490625,31.7186475Q45.1064490625,31.8003975,45.0984590625,31.8817475Q45.0904790625,31.9630975,45.0745890625,32.0432775Q45.0586890625,32.1234475,45.0350490625,32.2016775Q45.0113990625,32.2798975,44.9802290625,32.3554275Q44.9490490625,32.4309475,44.9106490625,32.5030375Q44.8722490625,32.5751375,44.8269890625,32.6430975Q44.7817290625,32.7110675,44.7300490625,32.7742575Q44.678369062499996,32.8374475,44.6207690625,32.8952575Q44.5631690625,32.9530575,44.5001990625,33.0049175Q44.4372290625,33.0567775,44.3694890625,33.1021875Q44.3017590625,33.1476075,44.2299190625,33.1861375Q44.1580690625,33.2246775,44.0828090625,33.2559575Q44.0075490625,33.2872375,43.9295990625,33.3109675Q43.8516390625,33.3346975,43.771739062500004,33.3506475Q43.6918490625,33.3665975,43.6107790625,33.3746075Q43.5297090625,33.3826175,43.4482390625,33.3826175Q43.3667790625,33.3826175,43.2857090625,33.3746075Q43.2046390625,33.3665975,43.1247390625,33.3506475Q43.0448490625,33.3346975,42.9668890625,33.3109675Q42.8889390625,33.2872375,42.8136790625,33.2559575Q42.7384150625,33.2246775,42.6665710625,33.1861375Q42.5947280625,33.1476075,42.5269940625,33.1021875Q42.4592610625,33.0567775,42.3962900625,33.0049175Q42.3333180625,32.9530575,42.2757160625,32.8952575Q42.2181130625,32.8374475,42.1664340625,32.7742575Q42.1147550625,32.7110675,42.0694970625,32.6430975Q42.0242390625,32.5751375,41.9858380625,32.5030375Q41.9474370625,32.4309475,41.9162620625,32.3554275Q41.8850880625,32.2798975,41.8614407625,32.2016775Q41.8377934625,32.1234475,41.8219009625,32.0432775Q41.8060084625,31.9630975,41.7980237725,31.8817475Q41.7900390625,31.8003975,41.7900390625,31.7186475Q41.7900390625,31.6369075,41.7980237725,31.5555575Q41.8060084625,31.4742075,41.8219009625,31.3940275Q41.8377934625,31.3138575,41.8614407625,31.2356275Q41.8850880625,31.1574075,41.9162620625,31.0818775Q41.9474370625,31.0063575,41.9858380625,30.9342645Q42.0242390625,30.8621715,42.0694970625,30.7942025Q42.1147550625,30.7262345,42.1664340625,30.6630445Q42.2181130625,30.5998545,42.2757160625,30.5420515Q42.3333180625,30.4842485,42.3962900625,30.4323905Q42.4592610625,30.3805315,42.5269940625,30.3351165Q42.5947280625,30.2897005,42.6665710625,30.2511665Q42.7384150625,30.2126315,42.8136790625,30.1813495Q42.8889390625,30.1500667,42.9668890625,30.1263373Q43.0448490625,30.1026078,43.1247390625,30.0866601Q43.2046390625,30.0707124,43.2857090625,30.06269995Q43.3667790625,30.0546875,43.4482390625,30.0546875Q43.5297090625,30.0546875,43.6107790625,30.06269995Q43.6918490625,30.0707124,43.771739062500004,30.0866601Q43.8516390625,30.1026078,43.9295990625,30.1263373Q44.0075490625,30.1500667,44.0828090625,30.1813495Q44.1580690625,30.2126315,44.2299190625,30.2511665Q44.3017590625,30.2897005,44.3694890625,30.3351165Q44.4372290625,30.3805315,44.5001990625,30.4323905Q44.5631690625,30.4842485,44.6207690625,30.5420515Q44.678369062499996,30.5998545,44.7300490625,30.6630445Q44.7817290625,30.7262345,44.8269890625,30.7942025Q44.8722490625,30.8621715,44.9106490625,30.9342645Q44.9490490625,31.0063575,44.9802290625,31.0818775Q45.0113990625,31.1574075,45.0350490625,31.2356275Q45.0586890625,31.3138575,45.0745890625,31.3940275Q45.0904790625,31.4742075,45.0984590625,31.5555575Q45.1064490625,31.6369075,45.1064490625,31.7186475Z" fill="#FFFFFF" fill-opacity="1"/></g><g><path d="M33.7106071,58.5226453125C33.5983,57.8466733125,34.1188095,57.2314453125,34.8014225,57.2314453125L40.2994725,57.2314453125C40.840492499999996,57.2314453125,41.3014225,57.6233123125,41.3902925,58.1582123125L42.1276025,62.5951253125C42.2399025,63.2710953125,41.720372499999996,63.8863253125,41.0367825,63.8863253125L35.5387325,63.8863253125C34.9977125,63.8863253125,34.5367785,63.4944553125,34.4479105,62.9595553125L33.7106071,58.5226453125Z" fill="#FFFFFF" fill-opacity="1"/></g><g><path d="M35.3698075875,67.3966721875C35.2575034875,66.7197201875,35.7770321875,66.1044921875,36.4606221875,66.1044921875L41.9586721875,66.1044921875C42.4987121875,66.1044921875,42.960632187499996,66.4963591875,43.0485221875,67.0312541875L43.7858221875,71.4681721875C43.8981221875,72.1441421875,43.3786021875,72.7603521875,42.6950021875,72.7603521875L37.1969521875,72.7603521875C36.6569121875,72.7603521875,36.1950041875,72.3684821875,36.1071111875,71.8335821875L35.3698075875,67.3966721875Z" fill="#FFFFFF" fill-opacity="1"/></g><g><path d="M44.7682450875,58.5226453125C44.6559409875,57.8466733125,45.1754726875,57.2314453125,45.859069687499996,57.2314453125L51.3571196875,57.2314453125C51.8971496875,57.2314453125,52.3590596875,57.6233123125,52.4479296875,58.1582123125L53.1852396875,62.5951253125C53.296569687499996,63.2710953125,52.7770396875,63.8863253125,52.0944196875,63.8863253125L46.5963696875,63.8863253125C46.0553496875,63.8863253125,45.5944186875,63.4944553125,45.5055516875,62.9595553125L44.7682450875,58.5226453125Z" fill="#2D8CF0" fill-opacity="1"/></g><g><path d="M46.4264482125,67.3966721875C46.3141441125,66.7197201875,46.8336728125,66.1044921875,47.5172628125,66.1044921875L53.0153128125,66.1044921875C53.5563328125,66.1044921875,54.017272812499996,66.4963591875,54.1061328125,67.0312541875L54.8434428125,71.4681721875C54.9557428125,72.1441421875,54.4362128125,72.7603521875,53.7526228125,72.7603521875L48.2545728125,72.7603521875C47.7135528125,72.7603521875,47.2526188125,72.3684821875,47.1637518125,71.8335821875L46.4264482125,67.3966721875Z" fill="#FFFFFF" fill-opacity="1"/></g><g><g><ellipse cx="78.6669921875" cy="79.77849578857422" rx="17" ry="17.10759735107422" fill="#FFFFFF" fill-opacity="1"/></g><g><path d="M78.6663078125,95.33446796875C87.2038078125,95.33446796875,94.12470781249999,88.36976796875,94.12470781249999,79.77836796875C94.12470781249999,71.18690796875,87.2038078125,64.22216796875,78.6663078125,64.22216796875C70.1289478125,64.22216796875,63.2080078125,71.18690796875,63.2080078125,79.77836796875C63.2080078125,88.36976796875,70.1289478125,95.33446796875,78.6663078125,95.33446796875C78.6663078125,95.33446796875,78.6663078125,95.33446796875,78.6663078125,95.33446796875ZM71.2867278125,81.07706796875C70.8555078125,80.64306796875,70.8555078125,79.93956796875,71.2867278125,79.50566796875C71.7179278125,79.07166796875,72.4170478125,79.07166796875,72.8482478125,79.50566796875C72.8482478125,79.50566796875,76.7521078125,83.43416796875,76.7521078125,83.43416796875C76.7521078125,83.43416796875,85.3404078125,74.79136796875,85.3404078125,74.79136796875C85.77160781250001,74.35746796875,86.4708078125,74.35746796875,86.90210781249999,74.79136796875C87.3332078125,75.22536796874999,87.3332078125,75.92886796875,86.90210781249999,76.36286796875C86.90210781249999,76.36286796875,77.5328078125,85.79126796874999,77.5328078125,85.79126796874999C77.10160781249999,86.22526796875,76.4025078125,86.22526796875,75.9713078125,85.79126796874999C75.9713078125,85.79126796874999,71.2867278125,81.07706796875,71.2867278125,81.07706796875C71.2867278125,81.07706796875,71.2867278125,81.07706796875,71.2867278125,81.07706796875Z" fill-rule="evenodd" fill="#53D39C" fill-opacity="1"/></g></g></g></svg>