<svg xmlns="http://www.w3.org/2000/svg" xmlns:xlink="http://www.w3.org/1999/xlink" fill="none" version="1.1" width="16.6666259765625" height="16.66666603088379" viewBox="0 0 16.6666259765625 16.66666603088379"><g><path d="M14.413444140625,5.883437875366211C14.307544140625,2.616177875366211,11.625944140625,3.662109374969781e-10,8.333334140625,3.662109374969781e-10C4.973564140625,3.662109374969781e-10,2.250004140625,2.7240478753662107,2.250004140625,6.084267875366211L2.250004140625,9.83491787536621L2.244804140625,9.957167875366212C2.186264140625,10.642337875366211,1.640424140625,11.18823787536621,0.955567140625,11.24683787536621L0.722354140625,11.25783787536621C-0.240784859375,11.361137875366211,-0.240784859375,12.80953787536621,0.722354140625,12.912837875366211L0.833333140625,12.91863787536621L15.833344140625,12.91863787536621L15.944344140625,12.912837875366211L16.051144140625,12.895037875366212C16.906044140625,12.700037875366212,16.870444140625,11.357137875366211,15.944344140625,11.25783787536621L15.711044140625,11.24683787536621C14.985944140625,11.184837875366211,14.416644140625,10.57643787536621,14.416644140625,9.83491787536621L14.416644140625,6.084267875366211L14.413444140625,5.883437875366211ZM8.333304140625,1.666667875366211C5.955054140625,1.666667875366211,4.015794140625,3.546807875366211,3.920314140625,5.902167875366211L3.916634140625,6.084267875366211L3.916634140625,9.83492787536621C3.916634140625,10.258737875366212,3.831154140625,10.66253787536621,3.676484140625,11.030137875366211L3.593464140625,11.210837875366211L3.570804140625,11.25163787536621L13.094944140625,11.25163787536621L13.073144140625,11.210837875366211C12.919944140625,10.90403787536621,12.816344140625,10.56803787536621,12.772944140625,10.21353787536621L12.754244140625,9.998697875366211L12.749944140625,9.83492787536621L12.749944140625,6.084267875366211C12.749944140625,3.644457875366211,10.772544140625,1.666667875366211,8.333304140625,1.666667875366211ZM9.630754140625,14.252537875366212C10.272944140625,14.252537875366212,10.673844140625,14.948437875366212,10.351644140625,15.50393787536621C9.934204140625,16.22363787536621,9.165204140625,16.66663787536621,8.333254140625,16.66663787536621C7.501304140625,16.66663787536621,6.732304140625,16.22363787536621,6.314884140625,15.50393787536621C6.008784140625,14.976137875366211,6.355244140625,14.32173787536621,6.941284140625,14.25763787536621L7.035754140625,14.252537875366212L9.630754140625,14.252537875366212Z" fill-rule="evenodd" fill="#FFFFFF" fill-opacity="0.550000011920929"/></g></svg>