<svg xmlns="http://www.w3.org/2000/svg" xmlns:xlink="http://www.w3.org/1999/xlink" fill="none" version="1.1" width="16" height="16" viewBox="0 0 16 16"><defs><clipPath id="master_svg0_926_49614"><rect x="16" y="0" width="16" height="16" rx="0"/></clipPath></defs><g><g transform="matrix(-1,0,0,1,32,0)" clip-path="url(#master_svg0_926_49614)"><g><path d="M30,0L32,0L32,2L30,2L30,0Z" fill="#89919F" fill-opacity="1"/></g><g><path d="M16,0L28,0L28,2L16,2L16,0Z" fill="#89919F" fill-opacity="1"/></g><g><path d="M30,7L32,7L32,9L30,9L30,7Z" fill="#89919F" fill-opacity="1"/></g><g><path d="M16,7L28,7L28,9L16,9L16,7Z" fill="#89919F" fill-opacity="1"/></g><g><path d="M30,14L32,14L32,16L30,16L30,14Z" fill="#89919F" fill-opacity="1"/></g><g><path d="M16,14L28,14L28,16L16,16L16,14Z" fill="#89919F" fill-opacity="1"/></g></g></g></svg>